<svg width="1122" height="147" viewBox="0 0 1122 147" fill="none" xmlns="http://www.w3.org/2000/svg">
<path opacity="0.03" d="M0.173541 161V35H59.2135C74.3335 35 85.8535 38 93.7735 44C101.694 49.88 105.654 57.8 105.654 67.76C105.654 74.48 104.094 80.24 100.974 85.04C97.8535 89.72 93.6535 93.38 88.3735 96.02C83.2135 98.54 77.5735 99.8 71.4535 99.8L74.6935 93.32C81.7735 93.32 88.1335 94.64 93.7735 97.28C99.4135 99.8 103.854 103.52 107.094 108.44C110.454 113.36 112.134 119.48 112.134 126.8C112.134 137.6 107.994 146 99.7135 152C91.4335 158 79.1335 161 62.8135 161H0.173541ZM23.5735 142.64H61.3735C70.1335 142.64 76.8535 141.2 81.5335 138.32C86.2135 135.44 88.5535 130.82 88.5535 124.46C88.5535 118.22 86.2135 113.66 81.5335 110.78C76.8535 107.78 70.1335 106.28 61.3735 106.28H21.7735V88.1H56.6935C64.8535 88.1 71.0935 86.66 75.4135 83.78C79.8535 80.9 82.0735 76.58 82.0735 70.82C82.0735 64.94 79.8535 60.56 75.4135 57.68C71.0935 54.8 64.8535 53.36 56.6935 53.36H23.5735V142.64ZM189.307 161V35H212.707V161H189.307ZM298.988 161V35H390.968V54.62H322.388V141.38H393.488V161H298.988ZM320.588 106.64V87.38H383.228V106.64H320.588ZM471.774 161V35H491.034L570.054 132.02H560.514V35H583.734V161H564.474L485.454 63.98H494.994V161H471.774ZM695.256 161V54.8H653.496V35H760.416V54.8H718.656V161H695.256ZM887.46 162.8C877.62 162.8 868.56 161.18 860.28 157.94C852 154.7 844.8 150.2 838.68 144.44C832.56 138.56 827.82 131.72 824.46 123.92C821.1 116 819.42 107.36 819.42 98C819.42 88.64 821.1 80.06 824.46 72.26C827.82 64.34 832.56 57.5 838.68 51.74C844.8 45.86 852 41.3 860.28 38.06C868.56 34.82 877.56 33.2 887.28 33.2C897.12 33.2 906.12 34.82 914.28 38.06C922.56 41.3 929.76 45.86 935.88 51.74C942 57.5 946.74 64.34 950.1 72.26C953.46 80.06 955.14 88.64 955.14 98C955.14 107.36 953.46 116 950.1 123.92C946.74 131.84 942 138.68 935.88 144.44C929.76 150.2 922.56 154.7 914.28 157.94C906.12 161.18 897.18 162.8 887.46 162.8ZM887.28 142.28C893.64 142.28 899.52 141.2 904.92 139.04C910.32 136.88 915 133.82 918.96 129.86C922.92 125.78 925.98 121.1 928.14 115.82C930.42 110.42 931.56 104.48 931.56 98C931.56 91.52 930.42 85.64 928.14 80.36C925.98 74.96 922.92 70.28 918.96 66.32C915 62.24 910.32 59.12 904.92 56.96C899.52 54.8 893.64 53.72 887.28 53.72C880.92 53.72 875.04 54.8 869.64 56.96C864.36 59.12 859.68 62.24 855.6 66.32C851.64 70.28 848.52 74.96 846.24 80.36C844.08 85.64 843 91.52 843 98C843 104.36 844.08 110.24 846.24 115.64C848.52 121.04 851.64 125.78 855.6 129.86C859.56 133.82 864.24 136.88 869.64 139.04C875.04 141.2 880.92 142.28 887.28 142.28ZM852.9 24.74L877.02 0.0799904H897.54L921.66 24.74H903.12L878.64 4.03999H895.92L871.44 24.74H852.9ZM1055.95 161V54.8H1014.19V35H1121.11V54.8H1079.35V161H1055.95Z" fill="black"/>
</svg>
