<svg width="28" height="28" viewBox="0 0 28 28" fill="none" xmlns="http://www.w3.org/2000/svg">
<path d="M8.16683 24.5H19.8335M14.0002 3.5V24.5M3.50016 8.16667H5.8335C8.16683 8.16667 11.6668 7 14.0002 5.83333C16.3335 7 19.8335 8.16667 22.1668 8.16667H24.5002M18.6668 18.6667L22.1668 9.33333L25.6668 18.6667C24.6518 19.425 23.4268 19.8333 22.1668 19.8333C20.9068 19.8333 19.6818 19.425 18.6668 18.6667ZM2.3335 18.6667L5.8335 9.33333L9.3335 18.6667C8.3185 19.425 7.0935 19.8333 5.8335 19.8333C4.5735 19.8333 3.3485 19.425 2.3335 18.6667Z" stroke="#A7A7A7" stroke-width="2" stroke-linecap="round" stroke-linejoin="round"/>
</svg>
